HIERARCHY
ROOT Hips
{
	OFFSET -3.958830 18.904000 13.208200
	CHANNELS 6 Xposition Yposition Zposition Zrotation Yrotation Xrotation 
	JOINT LHipJoint
	{
		OFFSET 0.000000 0.000000 0.000000
		CHANNELS 3 Zrotation Yrotation Xrotation
		JOINT LeftUpLeg
		{
			OFFSET 1.800000 -1.400000 0.085000
			CHANNELS 3 Zrotation Yrotation Xrotation
			JOINT LeftLeg
			{
				OFFSET 2.215000 -6.000000 0.000000
				CHANNELS 3 Zrotation Yrotation Xrotation
				JOINT LeftFoot
				{
					OFFSET 2.500000 -6.900000 0.000000
					CHANNELS 3 Zrotation Yrotation Xrotation
					JOINT LeftToeBase
					{
						OFFSET 0.200000 -0.500000 1.950000
						CHANNELS 3 Zrotation Yrotation Xrotation
						End Site
						{
							OFFSET 0.000000 0.000000 0.000000
						}
					}
				}
			}
		}
	}
	JOINT RHipJoint
	{
		OFFSET 0.000000 0.000000 0.000000
		CHANNELS 3 Zrotation Yrotation Xrotation
		JOINT RightUpLeg
		{
			OFFSET -1.800000 -1.400000 0.085000
			CHANNELS 3 Zrotation Yrotation Xrotation
			JOINT RightLeg
			{
				OFFSET -2.215000 -6.000000 0.000000
				CHANNELS 3 Zrotation Yrotation Xrotation
				JOINT RightFoot
				{
					OFFSET -2.500000 -6.900000 0.000000
					CHANNELS 3 Zrotation Yrotation Xrotation
					JOINT RightToeBase
					{
						OFFSET -0.200000 -0.500000 1.950000
						CHANNELS 3 Zrotation Yrotation Xrotation
						End Site
						{
							OFFSET 0.000000 0.000000 0.000000
						}
					}
				}
			}
		}
	}
	JOINT LowerBack
	{
		OFFSET 0.000000 0.000000 0.000000
		CHANNELS 3 Zrotation Yrotation Xrotation
		JOINT Spine
		{
			OFFSET -0.087000 1.940000 -0.288900
			CHANNELS 3 Zrotation Yrotation Xrotation
			JOINT Spine1
			{
				OFFSET 0.000000 1.950000 0.060000
				CHANNELS 3 Zrotation Yrotation Xrotation
				JOINT Neck
				{
					OFFSET 0.000000 0.000000 0.000000
					CHANNELS 3 Zrotation Yrotation Xrotation
					JOINT Neck1
					{
						OFFSET 0.000000 1.600000 0.340000
						CHANNELS 3 Zrotation Yrotation Xrotation
						JOINT Head
						{
							OFFSET 0.000000 1.667000 -0.240000
							CHANNELS 3 Zrotation Yrotation Xrotation
							End Site
							{
								OFFSET 0.000000 0.000000 0.000000
							}
						}
					}
				}
				JOINT LeftShoulder
				{
					OFFSET 0.000000 0.000000 0.000000
					CHANNELS 3 Zrotation Yrotation Xrotation
					JOINT LeftArm
					{
						OFFSET 2.700000 1.550000 -0.730000
						CHANNELS 3 Zrotation Yrotation Xrotation
						JOINT LeftForeArm
						{
							OFFSET 5.450000 0.000000 0.000000
							CHANNELS 3 Zrotation Yrotation Xrotation
							JOINT LeftHand
							{
								OFFSET 3.450000 0.000000 0.000000
								CHANNELS 3 Zrotation Yrotation Xrotation
								JOINT LeftHandIndex1
								{
									OFFSET 0.750000 0.000000 0.000000
									CHANNELS 3 Zrotation Yrotation Xrotation
									End Site
									{
										OFFSET 0.000000 0.000000 0.000000
									}
								}
							}
						}
					}
				}
				JOINT RightShoulder
				{
					OFFSET 0.000000 0.000000 0.000000
					CHANNELS 3 Zrotation Yrotation Xrotation
					JOINT RightArm
					{
						OFFSET -2.700000 1.550000 -0.730000
						CHANNELS 3 Zrotation Yrotation Xrotation
						JOINT RightForeArm
						{
							OFFSET -5.450000 0.000000 0.000000
							CHANNELS 3 Zrotation Yrotation Xrotation
							JOINT RightHand
							{
								OFFSET -3.450000 0.000000 0.000000
								CHANNELS 3 Zrotation Yrotation Xrotation
								JOINT RightHandIndex1
								{
									OFFSET -0.750000 0.000000 0.000000
									CHANNELS 3 Zrotation Yrotation Xrotation
									End Site
									{
										OFFSET 0.000000 0.000000 0.000000
									}
								}
							}
						}
					}
				}
			}
		}
	}
}
MOTION
Frames: 13
Frame Time: 0.016667
-0.466520 16.958480 -4.776280 -16.172222 -23.046903 11.098451 -16.032211 9.556619 6.939189 36.162463 2.039867 -38.216033 -39.401254 17.512524 17.483599 0.266238 10.374443 0.932162 1.420040 1.274310 0.540620 18.214946 -8.668802 2.126737 0.775649 6.038784 -22.825207 9.685899 -5.527478 21.738424 -0.370159 -3.589921 3.312066 0.975500 0.424070 0.217620 -2.764113 -0.668828 -8.947819 1.898277 4.527395 13.679110 4.344466 5.847821 13.882793 2.939721 0.968319 -8.831556 1.477862 0.732698 27.402505 8.906070 -4.705290 -16.175320 -7.080159 -28.521874 5.799166 -50.785982 -45.678306 12.772447 -30.292960 -64.434949 14.144476 -3.434843 3.535623 0.375390 0.217870 -0.112940 0.729370 2.012103 32.687980 0.629313 12.400004 32.459166 -4.555920 128.419554 74.498549 108.424905 1.400784 -0.411861 -0.080900 0.519650 -0.446210 -0.052640 
-0.475410 16.958780 -4.793800 -15.993694 -23.497138 10.404348 -16.076996 9.762108 6.801377 35.482862 1.997143 -37.604327 -38.441009 17.904795 18.699867 0.273495 10.354293 0.912986 1.454840 1.327740 0.573700 18.148736 -8.682853 2.099587 0.967099 5.685625 -21.761716 9.496253 -5.213728 20.397541 -0.370728 -3.435843 3.366484 0.991530 0.374970 0.207760 -2.572004 -0.913607 -8.883600 0.808542 4.871787 13.887771 5.734712 5.962385 14.810542 2.869684 1.017163 -9.216943 1.461945 0.534036 28.514218 8.883580 -4.631320 -16.747680 -6.032853 -30.002199 6.402079 -52.515158 -48.030445 12.979360 -21.614335 -61.576122 7.834349 -3.372684 3.471785 0.380970 0.186170 -0.076150 0.728740 1.192986 34.412046 0.310071 10.595826 32.180586 -6.443490 118.228549 76.756136 99.703348 1.660191 0.905074 -0.054690 0.508920 -0.476960 -0.052380 
-0.477780 16.969540 -4.812390 -14.938732 -22.975078 9.934526 -16.122368 10.103501 6.593188 33.437683 1.222109 -38.408170 -36.091292 18.266607 21.345343 0.217075 10.270255 0.895788 1.483870 1.355550 0.605360 18.062717 -8.673706 2.082677 0.893179 5.369116 -21.536593 8.790198 -4.851215 19.420023 -0.365195 -3.243218 3.411351 0.994780 0.328390 0.227240 -2.310138 -1.424564 -8.740664 -1.240012 4.927743 13.873409 7.269713 5.551555 15.287184 2.396131 1.212013 -9.590173 1.580714 0.534194 29.295320 9.105220 -4.413480 -17.731530 -5.265326 -30.390159 6.571689 -54.591976 -49.715301 13.667794 -17.921819 -57.608997 4.778741 -3.352150 3.463951 0.412600 0.154810 -0.032920 0.715830 1.335166 34.701747 0.539480 10.030919 33.605651 -5.192264 106.534713 80.095690 88.241663 2.357727 2.985512 -0.029680 0.487100 -0.482670 -0.062290 
-0.468490 16.986230 -4.820680 -14.302219 -22.046437 9.720661 -16.103363 10.451913 6.376630 31.236024 0.360973 -39.418402 -32.523880 18.450415 24.775506 0.134961 10.158438 0.902177 1.469850 1.344350 0.598010 18.024490 -8.732075 2.129310 1.421537 5.107419 -21.408482 7.527682 -4.397132 18.575463 -0.340371 -3.016583 3.494394 0.978390 0.310930 0.219830 -2.199658 -1.819190 -8.677580 -1.801876 4.422382 14.206618 7.611067 4.840332 15.702246 1.976478 1.155950 -10.095807 1.271115 0.866504 29.948366 9.652160 -4.174860 -18.615310 -5.327714 -30.246497 6.640368 -56.581919 -50.018897 13.740182 -16.435956 -54.884568 3.274299 -3.342740 3.448250 0.450100 0.130750 -0.010260 0.702500 2.095686 34.266459 1.563300 10.352628 35.458195 -2.144681 97.833192 84.627834 81.349305 2.869950 3.894269 -0.034950 0.495620 -0.469120 -0.070080 
-0.454380 17.008570 -4.833480 -13.440000 -20.981258 9.699714 -16.059138 10.733998 6.133074 28.647061 -0.510475 -40.648425 -28.396493 18.460878 28.690114 0.064415 10.042349 0.923421 1.469940 1.332230 0.615970 18.012701 -8.836700 2.209196 1.911679 5.079010 -22.014465 5.973517 -3.971823 18.538449 -0.328556 -2.832541 3.551476 0.956910 0.285410 0.224500 -2.173850 -1.990125 -8.603690 -2.258210 4.380020 14.652457 8.209030 4.643025 15.338706 1.600980 0.932593 -10.247930 0.790931 0.807002 30.370681 9.854050 -4.205960 -19.452940 -5.251538 -30.343252 6.950549 -58.945399 -49.880280 13.865390 -17.803445 -53.352229 3.275713 -3.338057 3.481642 0.484870 0.104650 0.016550 0.691420 2.840880 34.621651 1.681411 12.530179 33.728945 -4.513540 103.946957 80.870396 83.594762 2.714845 3.163210 -0.029480 0.490760 -0.469450 -0.080250 
-0.440070 17.034640 -4.844960 -12.341092 -19.976485 9.749690 -16.019165 11.076391 5.865907 25.721611 -1.349545 -41.806245 -23.389203 18.056373 32.947902 0.016403 9.859490 0.978634 1.431750 1.277110 0.608700 17.990108 -8.930930 2.320638 2.437525 5.189003 -23.086726 4.124256 -3.539383 19.111334 -0.311774 -2.656907 3.614312 0.897090 0.257200 0.219150 -2.122062 -2.243329 -8.553664 -3.025583 4.385157 15.345635 8.925275 4.455241 14.552866 1.097799 0.409952 -10.576397 -0.259732 0.781000 30.903110 10.396730 -4.376700 -20.276120 -5.769932 -29.925826 7.186353 -61.400139 -47.754011 12.789368 -21.512901 -53.823339 4.476431 -3.323288 3.525336 0.525350 0.066850 0.042180 0.674190 4.434382 34.719820 2.406307 14.707593 32.034153 -5.740385 109.845155 77.186320 84.901667 2.511991 1.858241 -0.027210 0.476040 -0.463200 -0.086960 
-0.425210 17.057810 -4.851830 -10.810021 -18.666263 9.611440 -15.967748 11.515537 5.539656 22.159760 -2.475889 -42.627839 -17.214736 16.776445 37.475408 -0.065883 9.545226 1.091423 1.376600 1.188980 0.596500 17.961550 -9.065617 2.423809 2.698518 5.117194 -24.009295 2.082131 -3.086424 19.569312 -0.292350 -2.491499 3.675258 0.826570 0.243830 0.210020 -2.068734 -2.585474 -8.471698 -3.947798 4.203301 16.195569 9.247327 4.104479 13.796973 0.578947 -0.376558 -11.011265 -1.806254 0.835657 31.153015 11.032630 -4.658470 -21.207380 -6.606243 -29.186901 7.252609 -63.210987 -44.751319 11.042305 -26.380892 -55.208633 6.508933 -3.316518 3.537344 0.581190 0.030500 0.058150 0.653560 6.330562 34.478596 3.598324 17.166735 30.726914 -5.648003 114.002517 73.912870 84.080580 2.371698 0.685584 -0.046690 0.477210 -0.442280 -0.102000 
-0.395430 17.072940 -4.856840 -9.781566 -17.239613 9.604096 -15.895397 11.942793 5.188672 18.685584 -3.409201 -43.095362 -9.995431 14.367775 41.402023 -0.178978 9.010186 1.274224 1.322030 1.082130 0.602200 17.954697 -9.211915 2.581237 3.353130 5.218297 -25.058149 -0.006005 -2.686693 20.594622 -0.285628 -2.408848 3.700130 0.741270 0.209660 0.213910 -2.091892 -2.835394 -8.422139 -3.819742 3.622507 17.535346 8.693255 3.614191 12.722498 0.564139 -1.060798 -11.479078 -3.133182 0.851627 31.244136 11.294440 -4.742100 -21.968930 -8.467859 -28.137411 7.353343 -64.336357 -40.473542 8.632833 -32.813200 -57.382619 9.893936 -3.314716 3.552204 0.644420 -0.007590 0.072710 0.617530 8.210882 33.667748 4.768511 19.972134 29.574101 -4.781387 115.236791 70.796742 79.913118 2.337624 -0.154109 -0.060200 0.443170 -0.421070 -0.134450 
-0.363780 17.068740 -4.859000 -8.589746 -15.716752 9.436278 -15.785033 12.395394 4.743633 14.469188 -4.156108 -42.639990 -1.983385 10.621346 43.245501 -0.328798 8.083801 1.614070 1.226430 0.949430 0.568540 17.972121 -9.444471 2.758852 4.034530 5.223709 -26.045391 -2.592741 -2.127309 21.274190 -0.258699 -2.335360 3.729628 0.654030 0.213190 0.204650 -2.210014 -2.934524 -8.308178 -3.278824 2.917524 18.935838 7.432812 3.147567 11.668327 0.644164 -1.704707 -11.810411 -4.255030 0.770372 30.817075 11.401430 -4.931540 -22.319620 -10.212741 -26.660963 7.333715 -64.336638 -35.200471 5.789447 -43.147326 -60.056263 16.235280 -3.362288 3.532691 0.683480 -0.020520 0.061480 0.574040 9.750228 32.341474 5.835706 23.571549 28.440381 -3.689932 112.376780 67.991314 71.688423 2.360480 -0.737651 -0.093610 0.437430 -0.370480 -0.156810 
-0.330710 17.052300 -4.858320 -7.603210 -14.273900 9.282404 -15.659947 12.758774 4.335648 10.559993 -4.489583 -41.483983 5.694463 6.596511 42.840361 -0.448983 7.122002 1.988398 1.139320 0.814160 0.540880 18.015696 -9.677844 2.951769 5.043642 5.271094 -26.884759 -5.598640 -1.436734 21.610265 -0.242339 -2.293608 3.754446 0.566370 0.220120 0.202560 -2.407198 -2.878074 -8.219524 -2.053050 2.176360 20.653085 5.703165 2.908548 10.056938 0.758178 -2.324234 -11.783427 -5.239447 0.511721 30.068758 11.295340 -5.116400 -22.596230 -12.872322 -24.505393 7.074674 -62.683498 -29.195715 3.415496 -58.366038 -61.429376 26.267227 -3.427854 3.509554 0.728110 -0.027780 0.045460 0.539480 12.095274 30.359077 6.497730 27.455498 26.686409 -2.772279 108.703573 64.407786 63.612019 2.267639 -1.264327 -0.129940 0.424840 -0.326600 -0.183970 
-0.292270 17.027260 -4.854140 -6.713882 -12.780698 8.919607 -15.515223 13.017553 4.003064 7.403548 -4.477646 -39.617207 11.813786 3.329502 40.408713 -0.495594 6.307699 2.317865 1.024930 0.659140 0.489460 18.083879 -9.930615 3.121887 5.859343 5.278655 -27.334979 -8.414309 -0.809955 21.685397 -0.224383 -2.308303 3.763729 0.459190 0.226290 0.196600 -2.683935 -2.665815 -8.169495 -0.147650 1.472085 22.775346 3.550914 2.923408 8.188277 0.774644 -3.001898 -11.867670 -6.290635 0.123637 29.408474 11.376830 -5.512370 -22.408400 -15.583492 -22.400103 6.782995 -59.492870 -22.808055 0.953978 -74.170372 -60.269884 35.939667 -3.493502 3.484682 0.751410 -0.033940 0.022120 0.496670 14.636107 28.437128 7.353294 31.692254 23.268439 -3.293040 106.989635 61.124021 58.438078 2.196972 -1.558954 -0.156770 0.394930 -0.276640 -0.199860 
-0.247490 16.981630 -4.841710 -6.160558 -10.775696 9.075757 -15.334679 13.030538 3.777409 5.288700 -4.392577 -38.081890 15.840817 1.220404 36.679968 -0.503901 5.616297 2.621210 0.909550 0.505790 0.420240 18.217143 -10.171095 3.300773 6.534586 5.532667 -28.348956 -10.711125 -0.323620 22.193215 -0.201733 -2.424510 3.744488 0.352630 0.264670 0.202170 -3.138730 -2.127604 -8.146921 3.278522 0.248524 24.230665 0.198890 2.732878 6.199467 0.888937 -3.565370 -11.804308 -6.915172 -0.658617 27.892200 11.085200 -6.466330 -20.731960 -18.355501 -19.920683 6.452028 -55.150892 -16.170274 -1.250191 -87.106345 -57.633418 43.057367 -3.548434 3.507845 0.722690 -0.008250 -0.029400 0.472570 16.893136 25.896117 7.979495 36.313094 18.793135 -4.188418 106.809336 58.482734 55.407265 2.161385 -1.748840 -0.167150 0.354270 -0.232830 -0.192010 
-0.199130 16.922590 -4.811670 -5.635599 -8.370386 9.861133 -15.175332 12.858746 3.641036 3.799817 -4.468308 -37.189883 18.085400 0.080203 33.099356 -0.549533 5.110891 2.858943 0.792620 0.350250 0.331020 18.370485 -10.335318 3.454844 6.755930 6.027311 -30.215602 -12.487534 0.051661 23.580113 -0.169450 -2.660815 3.679495 0.275330 0.344880 0.210850 -3.617004 -1.471630 -8.106373 7.112820 -0.847777 24.202975 -3.029193 2.513617 4.459946 0.857800 -3.938647 -11.360414 -6.983677 -1.759792 25.549778 10.117420 -7.698220 -17.944990 -20.578228 -16.763865 5.682052 -50.935945 -10.663993 -2.368040 -95.267572 -53.883729 46.239984 -3.607208 3.562288 0.673190 0.057210 -0.117720 0.455540 18.818453 22.443669 8.318526 41.098140 13.122032 -5.227658 107.869853 55.796901 53.440274 2.098063 -1.907717 -0.200940 0.333950 -0.167660 -0.184230 
